<svg xmlns="http://www.w3.org/2000/svg" xmlns:xlink="http://www.w3.org/1999/xlink" viewBox="0 0 459.8000183105469 132" preserveAspectRatio="none" class="coupon-bg-selected">
  <g fill="none" fill-rule="evenodd">
    <g>
      <g>
        <g>
          <g>
            <g>
              <g transform="translate(-3160 -2828) translate(3118 80) translate(42 2487) translate(0 140) translate(0 85) translate(0 36)">
                <path stroke="#017FFF" fill="#E5F2FF" d="M451.8000183105469 0c4.418 0 8 3.582 8 8v116c0 4.418-3.582 8-8 8H140.5c0-4.419-3.582-8-8-8s-8 3.581-8 8H8c-4.418 0-8-3.582-8-8V8c0-4.418 3.582-8 8-8h116.5c0 4.418 3.582 8 8 8s8-3.582 8-8H392z"></path>
                <g stroke="#017FFF" stroke-dasharray="2 4" stroke-linecap="square" mask="url(#2nm5hm2qlb)">
                  <path d="M0.5 0L0.5 114" transform="translate(132 11)"></path>
                </g>
              </g>
            </g>
          </g>
        </g>
      </g>
    </g>
  </g>
</svg>